<?xml version="1.0" encoding="UTF-8"?>
<svg version="1.1" xmlns="http://www.w3.org/2000/svg" width="620" height="548">
<path d="M0 0 C204.6 0 409.2 0 620 0 C620 180.84 620 361.68 620 548 C415.4 548 210.8 548 0 548 C0 367.16 0 186.32 0 0 Z " fill="#000000" transform="translate(0,0)"/>
<path d="M0 0 C204.6 0 409.2 0 620 0 C620 180.84 620 361.68 620 548 C415.4 548 210.8 548 0 548 C0 367.16 0 186.32 0 0 Z M124 107 C122.98035156 107.81597656 121.96070312 108.63195312 120.91015625 109.47265625 C81.72604024 141.45310703 53.15973973 185.91476748 47.6875 236.875 C43.31019948 283.53740749 59.65014854 326.2528388 88.80712891 361.98486328 C98.40424036 373.43893561 109.13504674 383.91589516 121 393 C122.18785378 393.92011637 123.37533267 394.84071686 124.5625 395.76171875 C127.69804509 398.18812826 130.84575511 400.59795978 134 403 C127.41195742 420.5772745 120.63991999 438.06763401 113.62890625 455.48046875 C113.18305176 456.58825684 112.73719727 457.69604492 112.27783203 458.83740234 C111.44558973 460.89717819 110.60827595 462.95491451 109.76513672 465.01025391 C109.39791504 465.91050293 109.03069336 466.81075195 108.65234375 467.73828125 C108.33128662 468.51856689 108.01022949 469.29885254 107.67944336 470.1027832 C106.88761418 471.97794761 106.88761418 471.97794761 107 474 C116.52402599 471.50977302 125.93323921 468.64501108 135.35498047 465.79833984 C139.56831202 464.52664018 143.78422512 463.26357132 148 462 C153.71662391 460.28567923 159.43279055 458.56986502 165.14770508 456.84985352 C166.75762898 456.36659964 168.36814576 455.88531652 169.97924805 455.40600586 C175.00335086 453.91018342 180.01268151 452.37386978 185.015625 450.80859375 C187.44786787 450.05973732 189.88015918 449.31103822 192.3125 448.5625 C193.46371338 448.19592285 194.61492676 447.8293457 195.80102539 447.45166016 C206.2653359 444.25999532 212.7293711 446.07713686 222.75 449.75 C238.2022387 455.25854522 253.77210951 459.46894904 270 462 C270.85625977 462.13680176 271.71251953 462.27360352 272.59472656 462.41455078 C288.77872054 464.92859678 304.64239509 465.4542286 321 465 C321.82081055 464.97921387 322.64162109 464.95842773 323.48730469 464.93701172 C387.16381235 463.04936821 457.42130496 437.78558206 505 395 C506.33306665 393.874684 507.66637025 392.7496486 509 391.625 C518.96608672 382.79189998 527.8259141 373.28337613 535.79052734 362.61523438 C536.89285992 361.14308413 538.01755356 359.68774513 539.14453125 358.234375 C566.38659465 322.34147885 577.27150687 274.5430661 571.23046875 230.13378906 C570.64276561 226.70928809 569.88497311 223.35926959 569 220 C568.69400879 218.81011475 568.69400879 218.81011475 568.38183594 217.59619141 C565.30466193 205.92129468 561.27445888 194.85362831 556 184 C555.68224609 183.33468262 555.36449219 182.66936523 555.03710938 181.98388672 C546.83789058 165.00729909 536.07147653 149.57056927 523 136 C521.88879862 134.69345043 520.784215 133.38123291 519.6875 132.0625 C510.70886444 121.78322097 499.9050833 113.13656654 489 105 C488.01773438 104.26499268 488.01773438 104.26499268 487.015625 103.51513672 C458.96105387 82.69505781 425.93322064 67.13749305 392.08496094 58.53369141 C390.09529333 58.02439242 388.11400382 57.49041976 386.1328125 56.94921875 C378.37715612 54.89531793 370.58611103 53.28219731 362.6875 51.875 C361.81198486 51.71636475 360.93646973 51.55772949 360.03442383 51.39428711 C343.15358799 48.50047298 326.41752613 47.62234131 309.3125 47.6875 C307.77837463 47.69073273 307.77837463 47.69073273 306.21325684 47.69403076 C240.80988573 47.9139659 175.74185048 65.47698508 124 107 Z " fill="#FDFDFD" transform="translate(0,0)"/>
<path d="M0 0 C0.33 0 0.66 0 1 0 C1 93.06 1 186.12 1 282 C-203.6 282 -408.2 282 -619 282 C-619 191.58 -619 101.16 -619 8 C-618.67 8 -618.34 8 -618 8 C-617.86948242 8.67877197 -617.73896484 9.35754395 -617.60449219 10.05688477 C-608.62935557 56.48474781 -592.01960928 98.68788802 -558.62109375 133.23828125 C-556.78885774 135.16881905 -555.0954326 137.06571282 -553.421875 139.12109375 C-551.33452274 141.60234958 -549.2824997 143.66698284 -546.8125 145.75 C-544.80099302 147.45766558 -542.86676587 149.13323413 -541 151 C-541.40662057 155.06071154 -542.94207003 158.68159028 -544.44042969 162.45239258 C-544.68856667 163.08015028 -544.93670364 163.70790798 -545.19235992 164.35468864 C-546.01477001 166.43211995 -546.84325896 168.50706831 -547.671875 170.58203125 C-548.25738823 172.05698329 -548.84256643 173.53206836 -549.4274292 175.00727844 C-550.97014479 178.89485738 -552.51837907 182.78021269 -554.06845093 186.66486359 C-554.97597403 188.93977352 -555.88236584 191.21513048 -556.78833008 193.49066162 C-560.63130478 203.14216034 -564.48707392 212.78850411 -568.34777832 222.43292236 C-569.56037464 225.46310065 -570.77167259 228.49379731 -571.9830246 231.52447319 C-578.5868862 248.04466075 -585.22417881 264.54936641 -592 281 C-591.17828308 280.73802071 -591.17828308 280.73802071 -590.33996582 280.4707489 C-580.3623104 277.29094166 -570.36992461 274.19289422 -560.31640625 271.26171875 C-555.87145783 269.96565369 -551.43464545 268.64335081 -547 267.3125 C-546.19916992 267.07217041 -545.39833984 266.83184082 -544.57324219 266.58422852 C-539.04236875 264.9213209 -533.51486257 263.24741464 -527.98828125 261.5703125 C-527.27735321 261.3546312 -526.56642517 261.13894989 -525.83395386 260.91673279 C-522.29327007 259.84245968 -518.75284309 258.76735439 -515.21289062 257.69067383 C-508.52839429 255.65980834 -501.83812628 253.65249643 -495.1328125 251.69140625 C-487.86878158 249.56519117 -480.62241117 247.38255044 -473.37890625 245.1875 C-472.2591188 244.84832047 -471.13933136 244.50914093 -469.98561096 244.15968323 C-465.34604287 242.75393868 -460.70666608 241.34757452 -456.06811523 239.93847656 C-449.38437652 237.9088055 -442.69710386 235.89185046 -436.00274658 233.89746094 C-434.06854841 233.31936776 -432.13561586 232.73701436 -430.20428467 232.14941406 C-427.73241869 231.39857795 -425.25603156 230.66543977 -422.77734375 229.9375 C-421.73061241 229.6132605 -421.73061241 229.6132605 -420.66273499 229.2824707 C-414.29600642 227.45307818 -409.06388859 228.5251601 -402.875 230.453125 C-401.93237305 230.74034424 -400.98974609 231.02756348 -400.01855469 231.32348633 C-399.02243164 231.62923584 -398.02630859 231.93498535 -397 232.25 C-385.11776898 235.80679179 -373.16445323 238.59995211 -361 241 C-359.31583984 241.33644531 -359.31583984 241.33644531 -357.59765625 241.6796875 C-354.73729121 242.20121268 -351.88241982 242.61888416 -349 243 C-347.73800781 243.18433594 -346.47601563 243.36867188 -345.17578125 243.55859375 C-333.40905079 245.09885143 -321.65890543 245.18836346 -309.8125 245.1875 C-308.6095932 245.18885956 -308.6095932 245.18885956 -307.38238525 245.19024658 C-292.06209036 245.18829012 -276.8405457 244.75426981 -261.6875 242.3125 C-260.59993408 242.14024902 -259.51236816 241.96799805 -258.3918457 241.79052734 C-235.9250859 238.11470201 -212.83827281 233.75925631 -191.69287109 225.08935547 C-188.77339596 223.90833117 -185.83245866 222.79874769 -182.8828125 221.6953125 C-144.62547945 207.22975452 -109.63206064 187.78878102 -79.328125 160.10546875 C-77.27570017 158.24933287 -75.18154291 156.46629008 -73.0625 154.6875 C-64.07252443 146.83939633 -56.35253742 137.35446592 -49 128 C-48.55043945 127.43361816 -48.10087891 126.86723633 -47.63769531 126.28369141 C-24.39645981 96.85056276 -8.09849739 61.84498837 -2.578125 24.6328125 C-2 21 -2 21 -1 18 C-0.85507877 16.59335074 -0.75371069 15.1818867 -0.68359375 13.76953125 C-0.62075195 12.56586914 -0.62075195 12.56586914 -0.55664062 11.33789062 C-0.49766602 10.08782227 -0.49766602 10.08782227 -0.4375 8.8125 C-0.39431641 7.96751953 -0.35113281 7.12253906 -0.30664062 6.25195312 C-0.20068482 4.16815567 -0.0998498 2.08409897 0 0 Z " fill="#000000" transform="translate(619,266)"/>
<path d="M0 0 C97.68 0 195.36 0 296 0 C296 79.86 296 159.72 296 242 C295.67 242 295.34 242 295 242 C294.94054199 241.36312256 294.88108398 240.72624512 294.81982422 240.07006836 C292.10002614 212.06316052 285.3846688 184.904226 272.05029297 159.98291016 C270.9645678 157.93310545 269.91909911 155.86621356 268.87890625 153.79296875 C253.44489843 123.33458265 229.13716723 94.66543087 202 74 C201.4234668 73.55237305 200.84693359 73.10474609 200.25292969 72.64355469 C190.19582904 64.8364113 179.80841791 57.72261495 169 51 C168.34515625 50.58540527 167.6903125 50.17081055 167.015625 49.74365234 C148.87624771 38.30224012 129.12315777 29.73186602 108.90429688 22.69921875 C107.09284199 22.03408968 105.31965974 21.26734881 103.55078125 20.49609375 C71.38438888 6.94303734 34.55528885 2.64787897 0 1 C0 0.67 0 0.34 0 0 Z " fill="#010101" transform="translate(324,0)"/>
<path d="M0 0 C94.38 0 188.76 0 286 0 C286 0.33 286 0.66 286 1 C285.29206299 1.07516846 284.58412598 1.15033691 283.85473633 1.2277832 C228.00166731 7.19609031 174.44108298 19.18074037 126 49 C125.44376953 49.34063477 124.88753906 49.68126953 124.31445312 50.03222656 C110.59667638 58.48046365 97.74181346 68.00654168 85.60620117 78.59863281 C84.44917618 79.6081059 83.28727145 80.61199576 82.12231445 81.61230469 C70.78048812 91.40607461 60.09027357 102.07304532 51 114 C50.03655781 115.23445265 49.07300866 116.46882181 48.109375 117.703125 C41.36287799 126.4311853 35.38573856 135.37670201 30 145 C29.6277832 145.65548828 29.25556641 146.31097656 28.87207031 146.98632812 C18.84370467 164.75183862 12.14461677 183.30038168 7 203 C6.74452393 203.9271582 6.48904785 204.85431641 6.22583008 205.80957031 C4.19870505 213.41081831 3.1216415 220.9327204 2.3125 228.75 C2.11817383 230.52890625 2.11817383 230.52890625 1.91992188 232.34375 C1.60586135 235.22845412 1.2993422 238.11373804 1 241 C0.67 241 0.34 241 0 241 C0 161.47 0 81.94 0 0 Z " fill="#000000" transform="translate(0,0)"/>
<path d="M0 0 C1.20935715 -0.00761353 2.41871429 -0.01522705 3.66471863 -0.02307129 C6.21729473 -0.0338515 8.76991487 -0.03673389 11.32250977 -0.03222656 C15.20730012 -0.03125579 19.09010457 -0.07287475 22.97460938 -0.1171875 C25.46223549 -0.1223962 27.94986843 -0.12508267 30.4375 -0.125 C32.16453911 -0.1495929 32.16453911 -0.1495929 33.9264679 -0.17468262 C42.85019064 -0.09904224 49.37631156 2.05579504 56.23046875 7.84375 C64.57733398 17.85998827 65.73770192 25.40044446 66.04296875 38.40625 C66.08051718 39.79646943 66.11811608 41.1866875 66.15576172 42.5769043 C66.45103315 54.30986319 66.52205557 66.04501596 66.54296875 77.78125 C66.54564758 78.63492157 66.54832642 79.48859314 66.55108643 80.36813354 C66.61202178 105.90219981 64.02330604 132.77516364 45.26171875 152 C40.06007454 156.51571311 34.37389721 160.03870927 28.41796875 163.46875 C27.69867188 163.89929688 26.979375 164.32984375 26.23828125 164.7734375 C15.64370897 170.63910198 3.38805777 172.85739142 -8.58203125 171.46875 C-13.30802227 170.08622128 -17.15327128 167.89766524 -19.58203125 163.46875 C-20.82553981 159.73822433 -21.10401996 156.34322957 -20.58203125 152.46875 C-18.13249532 147.56967813 -15.3121632 145.13144226 -10.58203125 142.46875 C-7.28850292 141.52906098 -3.9593529 140.96003142 -0.58203125 140.40625 C7.4982124 139.04567956 14.3486475 137.37835227 20.41796875 131.46875 C24.06964827 125.79508727 25.3053172 120.07564596 26.16796875 113.46875 C26.35552734 112.16357422 26.35552734 112.16357422 26.546875 110.83203125 C26.8496406 108.71267208 27.13558313 106.59092074 27.41796875 104.46875 C25.67894287 104.50802612 25.67894287 104.50802612 23.90478516 104.5480957 C19.56253714 104.63927637 15.22037197 104.69624345 10.87744141 104.7434082 C9.00555138 104.76839898 7.1337574 104.80240373 5.26220703 104.84594727 C-7.45097653 105.13411276 -16.77191803 105.02019826 -26.51953125 95.96875 C-34.46588115 87.27626396 -34.89259999 77.94547063 -34.8828125 66.56640625 C-34.88709763 65.44866318 -34.89138275 64.3309201 -34.89579773 63.17930603 C-34.90151375 60.82698236 -34.90206154 58.47464103 -34.89770508 56.12231445 C-34.89454378 52.54542604 -34.91804439 48.96936465 -34.94335938 45.39257812 C-34.94563267 43.0963552 -34.94633572 40.80013007 -34.9453125 38.50390625 C-34.95452225 37.44631607 -34.96373199 36.38872589 -34.97322083 35.29908752 C-34.91095569 25.1900387 -33.11311966 16.07229808 -25.79296875 8.65625 C-17.59154732 1.05647725 -10.93884502 0.00190357 0 0 Z " fill="#FDFDFD" transform="translate(226.58203125,177.53125)"/>
<path d="M0 0 C1.1966478 -0.0004985 2.39329559 -0.00099701 3.62620544 -0.00151062 C6.14852566 0.00082356 8.67084848 0.01051317 11.19311523 0.02709961 C15.04887759 0.05072172 18.90394911 0.0476513 22.75976562 0.04101562 C25.21484786 0.04659192 27.6699272 0.05370149 30.125 0.0625 C31.27513077 0.06158859 32.42526154 0.06067719 33.61024475 0.05973816 C43.21536691 0.14466222 50.06410165 2.11455802 57.49609375 8.36328125 C64.40564037 16.43175394 65.78217456 24.3319569 65.91015625 34.6328125 C65.92970367 35.61849716 65.9492511 36.60418182 65.96939087 37.61973572 C66.0297891 40.8049993 66.07628452 43.99026303 66.12109375 47.17578125 C66.15686889 49.36816993 66.19300269 51.56055278 66.22949219 53.75292969 C66.298571 58.04241228 66.36069743 62.33191328 66.41699219 66.62158203 C66.46192092 70.02649818 66.51318913 73.43095236 66.58300781 76.83544922 C67.0655819 100.4418739 66.19099526 126.14732785 50.49609375 145.36328125 C49.86316406 146.17925781 49.23023438 146.99523437 48.578125 147.8359375 C42.84816388 154.75572661 36.32179349 159.06014712 28.49609375 163.36328125 C27.79742187 163.77320313 27.09875 164.183125 26.37890625 164.60546875 C15.44799847 170.65734473 2.28829003 173.33996684 -10.01953125 170.85546875 C-14.49707298 169.4127053 -17.03312324 167.31653406 -19.50390625 163.36328125 C-21.07470569 158.65088294 -21.25946939 154.27441154 -19.44140625 149.67578125 C-13.83135131 142.97990923 -7.78080636 141.34157515 0.49609375 139.80078125 C12.29475118 137.66419476 12.29475118 137.66419476 21.49609375 130.36328125 C24.52300258 124.37409509 25.82721577 118.08992578 26.6171875 111.47265625 C26.70383667 110.7854248 26.79048584 110.09819336 26.87976074 109.39013672 C27.09022751 107.71514166 27.29387647 106.03929225 27.49609375 104.36328125 C25.7946521 104.39470215 25.7946521 104.39470215 24.05883789 104.42675781 C19.81531602 104.49963628 15.57184849 104.54525345 11.32788086 104.58300781 C9.49770782 104.60301499 7.66759783 104.63022976 5.83764648 104.66503906 C3.19368863 104.71404128 0.5505821 104.73635886 -2.09375 104.75390625 C-3.30368874 104.78487396 -3.30368874 104.78487396 -4.53807068 104.81646729 C-13.40164981 104.81989992 -20.34704984 101.25322294 -26.77734375 95.296875 C-31.89916627 89.56089729 -33.60241321 83.0946323 -33.69677734 75.56005859 C-33.72087173 73.80705948 -33.72087173 73.80705948 -33.74545288 72.01864624 C-33.79010285 66.67111843 -33.83140927 61.32373524 -33.85400391 55.97607422 C-33.86730492 53.16128771 -33.89509076 50.34723275 -33.93603516 47.53271484 C-33.99521845 43.46309423 -34.01271091 39.39424783 -34.02734375 35.32421875 C-34.05001312 34.07595306 -34.0726825 32.82768738 -34.09603882 31.54159546 C-34.0741328 22.41359673 -32.22847038 15.77879808 -26.29296875 8.7421875 C-25.57882812 8.14277344 -24.8646875 7.54335937 -24.12890625 6.92578125 C-23.41992188 6.30832031 -22.7109375 5.69085938 -21.98046875 5.0546875 C-14.72190949 0.0973434 -8.6134253 -0.06909417 0 0 Z " fill="#FDFDFD" transform="translate(361.50390625,177.63671875)"/>
</svg>
